<?xml version="1.0" encoding="UTF-8" standalone="no"?>
<svg
   xmlns:dc="http://purl.org/dc/elements/1.1/"
   xmlns:cc="http://creativecommons.org/ns#"
   xmlns:rdf="http://www.w3.org/1999/02/22-rdf-syntax-ns#"
   xmlns:svg="http://www.w3.org/2000/svg"
   xmlns="http://www.w3.org/2000/svg"
   xmlns:sodipodi="http://sodipodi.sourceforge.net/DTD/sodipodi-0.dtd"
   xmlns:inkscape="http://www.inkscape.org/namespaces/inkscape"
   viewBox="0 0 48 48"
   version="1.1"
   id="svg16"
   sodipodi:docname="default.svg"
   inkscape:version="0.92.4 (5da689c313, 2019-01-14)">
  <metadata
     id="metadata20">
    <rdf:RDF>
      <cc:Work
         rdf:about="">
        <dc:format>image/svg+xml</dc:format>
        <dc:type
           rdf:resource="http://purl.org/dc/dcmitype/StillImage" />
      </cc:Work>
    </rdf:RDF>
  </metadata>
  <sodipodi:namedview
     pagecolor="#ffffff"
     bordercolor="#666666"
     borderopacity="1"
     objecttolerance="10"
     gridtolerance="10"
     guidetolerance="10"
     inkscape:pageopacity="0"
     inkscape:pageshadow="2"
     inkscape:window-width="1920"
     inkscape:window-height="977"
     id="namedview18"
     showgrid="false"
     inkscape:zoom="9.8333333"
     inkscape:cx="3.6296268"
     inkscape:cy="22.121353"
     inkscape:window-x="1920"
     inkscape:window-y="0"
     inkscape:window-maximized="1"
     inkscape:current-layer="BG" />
  <defs
     id="defs4">
    <style
       id="style2">.cls-1{fill:#f6f6f6;}.cls-2{fill:#0090ff;}</style>
  </defs>
  <title
     id="title6">5</title>
  <g
     id="BG">
    <rect
       style="fill:#f6f6f6;fill-opacity:1;stroke:none;stroke-width:2.56403947;stroke-miterlimit:4;stroke-dasharray:none;stroke-opacity:1"
       id="rect818"
       width="48"
       height="48"
       x="0"
       y="-1.6589904e-06" />
  </g>
  <g
     id="User">
    <path
       class="cls-2"
       d="M37,38H36v-.62A10.69,10.69,0,0,0,25.31,26.66h-.62A10.69,10.69,0,0,0,14,37.34V38H13v-.62A11.69,11.69,0,0,1,24.69,25.66h.62A11.69,11.69,0,0,1,37,37.34Z"
       transform="translate(-1 -1)"
       id="path11" />
    <path
       class="cls-2"
       d="M 25,24.8 C 19.09289,24.8 16.135669,17.658571 20.31212,13.48212 24.488571,9.305669 31.63,12.26289 31.63,18.17 31.624493,21.829364 28.659364,24.794493 25,24.8 Z M 23.849453,17.933187 C 20.415312,17.71746 17.472672,18.60429 21.019191,22.150809 24.56571,25.697328 30.63,23.186143 30.63,18.17 c -0.0055,-3.10708 -3.673466,-0.231309 -6.780547,-0.236813 z"
       transform="translate(-1,-1)"
       id="path13"
       inkscape:connector-curvature="0"
       style="fill:#0090ff"
       sodipodi:nodetypes="cscccscc" />
  </g>
</svg>
